<svg viewBox="0 0 20 20" height="20" xmlns="http://www.w3.org/2000/svg"><path d="M 8.5327481,14.944037 C 7.4680295,13.782085 6.9827071,12.442446 6.9035003,10.446824 6.8338897,8.692944 7.1213887,7.2861795 7.786419,6.1266261 8.0969974,5.5850971 9.1076883,4.4681082 9.287104,4.4681082 c 0.2459584,0 0.2030576,0.1618134 -0.1581237,0.5964112 -0.4912191,0.5910696 -1.0243876,1.7064525 -1.2258039,2.5643693 -0.2360629,1.005496 -0.2310937,3.9596743 0.00817,4.8649973 0.2858271,1.081449 0.6989697,1.871087 1.5301914,2.924647 0.066583,0.08439 0.030723,0.113358 -0.1403502,0.113358 -0.1668944,0 -0.3772208,-0.160898 -0.7684484,-0.587854 z m 8.7212359,0.293122 C 18.053898,14.260736 18.558733,13.129504 18.7588,11.865175 18.88747,11.052038 18.886851,8.8922912 18.75771,8.1803025 18.631102,7.4818712 18.335883,6.517973 18.116567,6.0868167 18.023948,5.9047362 17.744592,5.4901534 17.495776,5.1655224 17.136641,4.6969577 17.072303,4.564188 17.183671,4.5214516 c 0.308291,-0.1183026 1.242924,0.9336425 1.765506,1.9871089 0.549986,1.1087124 0.743655,2.198434 0.693038,3.8995315 -0.03617,1.215577 -0.07061,1.452243 -0.323756,2.22451 -0.155803,0.475317 -0.437276,1.118473 -0.625496,1.429237 -0.457683,0.75567 -1.165317,1.470052 -1.456162,1.470052 H 17.01253 Z M 0.89353482,15.105098 c -0.0748165,-0.02735 -0.22785051,-0.133263 -0.34007531,-0.235365 -0.23219224,-0.211247 -0.27465336,-0.733645 -0.0804122,-0.98931 0.27840968,-0.366449 0.88946969,-0.360497 1.00700019,0.0098 0.06388,0.201268 -0.08075,0.535838 -0.3065939,0.709236 -0.1238616,0.0951 -0.1094688,0.110874 0.1034093,0.113359 0.4650199,0.0054 0.5665841,-0.309901 1.1988365,-3.721991 0.227119,-1.2256992 0.4129438,-2.2561263 0.4129438,-2.2898401 0,-0.033709 -0.2220413,-0.061295 -0.4934251,-0.061295 -0.5245032,0 -0.6405607,-0.075754 -0.5505491,-0.3593552 C 1.890766,8.1350985 1.9991419,8.0992349 2.4588302,8.0771026 l 0.558187,-0.026876 0.1630963,-0.81618 C 3.2698165,6.7851515 3.4551798,6.193421 3.5920319,5.919093 4.0322365,5.036682 4.9940589,4.7515443 5.5740347,5.3315201 6.1410876,5.8985731 5.4832378,6.9394078 4.8288055,6.5106083 4.5376458,6.3198324 4.5473597,5.9700555 4.851648,5.6880488 L 5.0916076,5.4656618 H 4.8094951 c -0.3626003,0 -0.4129209,0.1015817 -0.644322,1.3006755 -0.2720702,1.4098347 -0.2960694,1.3292405 0.3958204,1.3292405 0.6282337,0 0.7496094,0.073513 0.5958189,0.3608733 -0.083667,0.1563341 -0.1887788,0.1832477 -0.715689,0.1832477 H 3.8235072 L 3.5739657,9.9773286 C 3.2066945,11.946028 2.9288958,13.152283 2.7055256,13.74826 2.3211407,14.773844 1.5555721,15.347109 0.89353482,15.105098 Z M 10.994492,12.758392 c -0.606435,-0.299174 -0.647141,-1.213903 -0.06581,-1.478778 0.299847,-0.136619 0.445545,-0.126697 0.614062,0.04182 0.211883,0.211883 0.172862,0.560877 -0.09236,0.826103 -0.183667,0.183668 -0.208381,0.251666 -0.113358,0.311893 0.160301,0.101604 0.206744,0.09905 0.482222,-0.02645 0.128265,-0.05844 0.310784,-0.23188 0.405597,-0.385419 0.20326,-0.329158 0.820714,-2.7140996 0.820714,-3.1700454 0,-0.9520949 -1.225366,-0.7488712 -1.723048,0.2857634 -0.176044,0.3659788 -0.273688,0.4716213 -0.436873,0.4726528 -0.175715,0.00114 -0.200181,-0.032107 -0.149286,-0.2027142 0.218542,-0.7325642 0.935831,-1.4572933 1.557824,-1.5739793 0.414069,-0.07768 0.939278,0.086232 1.24005,0.3870039 l 0.241525,0.2415237 0.24704,-0.230351 c 0.490753,-0.4576041 0.901224,-0.5457635 1.382439,-0.2969181 0.328865,0.1700625 0.451617,0.3911513 0.451617,0.8134019 0,0.5580059 -0.646835,0.9964349 -0.979415,0.6638538 -0.194176,-0.1941741 -0.130437,-0.6771937 0.114817,-0.8701096 0.264536,-0.2080846 0.21407,-0.2906803 -0.177605,-0.2906803 -0.289098,0 -0.564478,0.2172383 -0.747228,0.5894626 -0.192852,0.3928025 -0.768373,2.9516508 -0.713257,3.1712478 0.09035,0.359997 0.436179,0.539195 0.805402,0.41734 0.378994,-0.125078 0.826907,-0.578704 1.013758,-1.026688 0.09645,-0.23125 0.199493,-0.340074 0.321999,-0.340074 0.50859,0 -0.236899,1.285495 -0.943999,1.627795 -0.647364,0.313385 -1.185055,0.238763 -1.694054,-0.235108 L 12.62363,12.263427 12.449389,12.45596 c -0.399612,0.441569 -0.943643,0.554661 -1.454898,0.302442 z"/></svg>
